<?xml version="1.0" standalone="no"?><!DOCTYPE svg PUBLIC "-//W3C//DTD SVG 1.1//EN" "http://www.w3.org/Graphics/SVG/1.1/DTD/svg11.dtd"><svg t="1783049879118" class="icon" viewBox="0 0 1024 1024" version="1.1" xmlns="http://www.w3.org/2000/svg" p-id="9817" width="160" height="160" xmlns:xlink="http://www.w3.org/1999/xlink"><path d="M951.893333 266.24a275.84 275.84 0 0 0-125.226666 0.213333c38.186667-33.493333 65.92-78.506667 77.226666-128.213333 1.493333-6.4-5.546667-9.813333-10.24-5.973333a492.010667 492.010667 0 0 0-94.293333 100.906666c2.56-11.733333 5.333333-23.253333 7.466667-35.2 4.48-23.893333 14.72-56.533333 0-78.506666-2.773333-4.053333-7.68-3.626667-10.666667 0-40.32 52.266667-55.893333 120.746667-43.52 185.386666 0 0.64 0.426667 1.28 0.64 1.706667a717.290667 717.290667 0 0 0-92.16 138.453333c-3.626667 7.04 7.04 13.226667 10.666667 6.186667 25.6-50.986667 57.813333-98.133333 94.933333-141.226667 0.426667 1.706667 1.706667 3.2 4.053333 3.626667 62.933333 12.373333 129.066667-0.64 182.4-36.266667 4.053333-2.773333 4.053333-10.026667-1.493333-11.306666z m-65.493333-111.786667c-16.64 50.986667-50.986667 94.933333-96.426667 123.733334-0.853333 0.213333-1.493333 0.64-2.346666 0.853333 0.64-2.56 1.28-5.12 2.133333-7.893333 26.026667-43.733333 58.453333-83.2 96.64-116.693334z m-122.88 140.373334c-8.96-55.893333 4.693333-113.493333 36.693333-159.786667 2.346667 8.533333 1.493333 17.92 0.213334 27.093333-2.133333 14.293333-4.693333 28.586667-7.466667 42.88-4.053333 20.266667-8.96 40.32-14.293333 60.373334-1.92 3.2-3.84 6.186667-5.546667 9.386666-1.493333 2.773333-0.64 5.333333 1.066667 7.253334v0.64c-3.626667 4.053333-7.04 8.106667-10.453334 12.16z m10.666667 7.04h-0.426667l3.84-4.48c1.493333 0.64 3.413333 0.853333 5.12-0.213334 4.693333-2.56 9.173333-5.546667 13.653333-8.32 43.733333-16.426667 90.88-21.333333 136.746667-13.44-48 27.306667-104.533333 37.333333-158.933333 26.666667zM505.386667 303.573333a309.333333 309.333333 0 0 0-14.72-140.8 6.250667 6.250667 0 0 0-11.946667 0 205.162667 205.162667 0 0 0-10.24 77.013334c-7.04-9.386667-14.506667-18.346667-22.613333-26.88-8.746667-9.173333-17.92-18.346667-27.946667-26.24-9.813333-7.893333-21.973333-14.293333-34.773333-10.24-4.053333 1.28-5.333333 5.333333-3.626667 8.96 16.213333 36.266667 42.026667 67.626667 73.813333 90.88a194.986667 194.986667 0 0 0-56.533333 7.253333c-4.906667 1.493333-6.186667 8.533333-1.493333 11.306667 30.933333 17.493333 66.773333 23.893333 101.973333 18.773333 21.546667 29.653333 34.986667 64.853333 37.333333 101.546667 0.426667 7.893333 12.8 7.893333 12.373334 0-2.773333-40.533333-17.493333-79.146667-41.6-111.36z m-110.933334-116.053333c8.32 1.493333 16 8.32 22.186667 13.866667 8.533333 7.466667 16.64 15.573333 24.32 23.893333 11.733333 12.8 21.76 26.88 31.146667 41.386667 0.426667 2.773333 1.066667 5.333333 1.706666 8.106666-33.92-21.333333-61.226667-51.413333-79.146666-87.253333z m97.493334 87.253333c-2.773333-4.693333-5.546667-9.386667-8.533334-14.08-4.266667-24.746667-3.626667-49.92 1.706667-74.24 8.32 30.72 11.733333 62.72 9.813333 94.72a7.893333 7.893333 0 0 0-2.346666-1.066666h-0.213334a5.546667 5.546667 0 0 0-0.426666-5.12z m-74.88 16.64c20.053333-3.84 40.533333-4.266667 60.8-1.066666 3.626667 3.84 7.04 7.893333 10.453333 11.946666-24.32 2.346667-48.853333-1.493333-71.253333-10.88zM369.706667 734.72a261.12 261.12 0 0 0-104.746667-128.213333c2.133333-0.64 3.84-2.56 3.626667-5.546667-4.48-52.48-24.96-101.973333-58.666667-142.293333-3.413333-4.266667-10.666667-0.64-10.453333 4.266666 0.853333 39.893333 10.453333 78.933333 27.946666 114.56a199.68 199.68 0 0 0-131.413333-52.48c-4.266667 0-8.106667 5.333333-5.333333 9.173334 32.426667 42.666667 81.066667 71.04 133.973333 77.866666-24.746667 11.52-47.573333 26.666667-68.053333 45.013334-5.76 5.12-13.866667 11.306667-13.653334 19.84 0.213333 8.32 8.533333 11.52 15.573334 9.813333 8.32-1.92 16-8.533333 23.04-13.013333 8.533333-5.546667 17.066667-11.093333 25.386666-16.853334 17.92-12.373333 35.2-25.813333 52.266667-39.68a248.533333 248.533333 0 0 1 98.56 120.533334c2.773333 7.253333 14.72 4.053333 11.946667-3.2zM212.906667 482.346667c24.533333 34.773333 39.68 75.946667 43.306666 118.4 0 0.426667 0.213333 0.853333 0.426667 1.28H256v-0.213334c-24.106667-35.626667-38.826667-76.8-42.88-119.466666z m-102.826667 55.893333c47.146667 4.266667 91.306667 26.88 122.88 62.293333a189.184 189.184 0 0 1-122.88-62.293333z m90.666667 108.16c-8.533333 5.973333-17.28 11.733333-26.24 17.493333l-13.44 8.32c-1.493333 0.853333-3.413333 1.706667-4.906667 2.56 1.493333-1.066667 2.986667-3.413333 4.266667-4.693333 1.706667-1.706667 3.413333-3.2 5.333333-4.906667a264.277333 264.277333 0 0 1 34.773333-26.24c10.666667-6.826667 21.973333-12.373333 33.493334-17.493333-10.88 8.533333-21.973333 16.853333-33.493334 24.746667z" p-id="9818"></path><path d="M320.213333 556.373333c-4.693333 0-9.173333-1.493333-13.013333-4.266666-4.693333-3.626667-7.893333-9.173333-8.32-15.146667l-7.466667-87.466667c-4.053333-48.213333-13.653333-96-28.373333-142.293333l-17.706667-55.893333c-1.92-5.76-1.066667-12.16 1.92-17.493334 3.2-5.333333 8.32-8.96 14.293334-10.026666l96.853333-18.133334c5.973333-1.066667 12.16 0.426667 17.066667 4.053334 4.906667 3.84 7.893333 9.386667 8.106666 15.573333l3.84 59.733333c2.986667 48 11.52 95.573333 25.173334 141.866667l24.746666 84.053333c1.706667 5.76 0.853333 11.946667-2.346666 17.066667a21.333333 21.333333 0 0 1-14.293334 9.813333l-96.853333 18.133334c-1.28 0.213333-2.56 0.426667-3.84 0.426666z m-26.88-295.04l10.453334 32.853334c15.573333 49.066667 25.813333 100.053333 30.08 151.466666l5.333333 64 50.346667-9.386666-18.133334-61.44a687.786667 687.786667 0 0 1-26.666666-151.253334l-2.346667-35.626666-49.28 9.173333zM385.706667 900.906667c-4.693333 0-9.173333-1.493333-13.013334-4.266667-4.693333-3.626667-7.893333-9.173333-8.32-15.146667l-7.466666-87.466666c-4.053333-48.213333-13.653333-96-28.373334-142.293334l-17.706666-55.893333c-1.92-5.76-1.066667-12.16 1.92-17.493333 3.2-5.333333 8.32-8.96 14.293333-10.026667l96.64-18.133333c5.973333-1.066667 12.16 0.426667 17.066667 4.053333 4.906667 3.84 7.893333 9.386667 8.106666 15.573333l3.84 59.733334c2.986667 48 11.52 95.786667 24.96 141.866666l24.746667 84.053334a21.525333 21.525333 0 0 1-16.64 27.093333l-96.64 18.133333c-1.28 0.213333-2.56 0.426667-3.84 0.426667zM359.04 605.866667l10.453333 32.853333c15.573333 49.066667 25.813333 100.053333 30.08 151.466667l5.546667 64 50.346667-9.386667-18.133334-61.44c-14.506667-49.066667-23.466667-100.053333-26.666666-151.253333l-2.346667-35.626667-49.28 9.173333zM660.266667 498.56h-1.92l-114.346667-10.026667c-5.973333-0.64-11.52-3.626667-15.146667-8.533333-3.626667-4.906667-4.906667-11.093333-3.84-17.066667l17.706667-85.973333c8.96-43.52 14.293333-108.16 13.226667-160.853333l-1.066667-58.453334c0-5.973333 2.346667-11.946667 6.826667-16 4.48-4.053333 10.453333-6.186667 16.426666-5.76l114.346667 10.026667c6.186667 0.64 11.733333 3.626667 15.36 8.746667 3.626667 4.906667 4.906667 11.306667 3.626667 17.28l-13.44 58.24c-9.813333 42.88-16.213333 105.386667-16.213334 159.573333v87.68c0 5.973333-2.773333 11.733333-7.04 15.786667-4.053333 3.626667-9.173333 5.546667-14.293333 5.546666zM571.733333 448l67.2 5.973333v-64.426666c0.213333-56.96 7.04-123.306667 17.493334-168.96l7.893333-34.56-66.346667-5.973334 0.64 34.773334c1.066667 56.32-4.48 123.306667-14.293333 170.24l-13.013333 62.506666z" p-id="9819"></path><path d="M622.293333 896.64h-1.92l-114.346666-10.026667c-5.973333-0.64-11.52-3.626667-15.146667-8.533333-3.626667-4.906667-4.906667-11.093333-3.84-17.066667l17.706667-85.973333c8.96-43.733333 14.293333-108.373333 13.226666-160.853333l-1.066666-58.453334c0-5.973333 2.346667-11.946667 6.826666-16 4.48-4.053333 10.453333-6.186667 16.426667-5.546666l114.346667 10.026666c6.186667 0.64 11.733333 3.626667 15.36 8.746667s4.906667 11.306667 3.626666 17.28l-13.44 58.24c-9.813333 42.88-16.213333 105.386667-16.213333 159.573333v87.68c0 5.973333-2.773333 11.733333-7.04 15.786667-4.053333 3.626667-9.173333 5.546667-14.293333 5.546667z m-88.533333-50.56l67.2 5.973333v-64.213333c0.213333-56.96 7.04-123.306667 17.493333-168.96l7.893334-34.56-66.346667-5.76 0.64 34.773333c1.066667 56.32-4.48 123.093333-14.293333 170.24L533.333333 846.08z" p-id="9820"></path></svg>